<?xml version="1.0" encoding="UTF-8"?>
<svg version="1.1" viewBox="0 0 500 500" xmlns="http://www.w3.org/2000/svg">
 <g transform="translate(0 -552.36)">
  <rect transform="translate(0 552.36)" width="500" height="500" ry="0" color="#000000" fill="#6da176"/>
  <g transform="matrix(1.0363 0 0 1.0363 -8.0312 -28.263)">
   <path transform="translate(0 552.36)" d="m250.81 70.625c-89.431 0-100 14.625-100 14.625s-43.465 10.839-37.406 153.66c5.6911 134.15 113.83 188.62 134.16 188.62l2.8438 0.125c20.325 0 128.47-54.479 134.16-188.62 6.0589-142.82-37.406-153.66-37.406-153.66s-10.331-14.226-96.344-14.625c-4e-5 -7.4e-4 0-0.125 0-0.125z" fill="#f8edd9"/>
   <path d="m279.97 694.21s25.295-20.408 45.703-19.259c20.408 1.1498 34.431 20.481 37.337 32.086s-7.7301-39.559-83.04-12.827z" fill="#969696"/>
   <path d="m269.51 714.76s23.984-25.203 51.829-29.268c27.846-4.065 41.667 21.545 41.667 21.545s-11.789-16.87-41.87-8.9431-42.683 20.732-42.683 20.732-7.5203 4.878-8.9431-4.065z"/>
   <path d="m280.28 754.39s13.008-12.805 30.081-13.211c17.073-0.40651 28.252 8.3333 30.488 12.602 2.2358 4.2683-16.26 8.1301-31.911 7.7236-15.65-0.4065-21.951-2.8455-28.659-7.1138z"/>
   <path d="m269.11 836.71c0-1.8293 1.0163-4.4715 5.2846-5.691s8.7398-0.40651 5.0813 2.8455c-3.6585 3.252-7.1138 3.8618-10.366 2.8455z"/>
   <path transform="translate(0 552.36)" d="m186.97 318.06s4.3092 7.9077 18.969 15.094c14.66 7.186 42.688 6.75 42.688 6.75s28.747 0.56104 43.406-6.625c14.66-7.186 18.969-15.094 18.969-15.094l-5.75 1.4375s-6.7184 8.6036-30.438 13.375c-13.926 2.8014-26.031 1.875-26.031 1.875s-11.699 0.8014-25.625-2c-23.719-4.7714-30.438-13.375-30.438-13.375l-5.75-1.4375z" fill="#fff" fill-opacity=".85328"/>
   <path transform="translate(0 552.36)" d="m146.97 276.91 24.594 37s4.8707 5.6872 11.781 6.0938c6.9106 0.40651 47.156 0 47.156 0l16.062-21.125h2.625l2.25 0.0937 16.031 21.156s40.246 0.40651 47.156 0c6.9106-0.4065 11.812-6.0938 11.812-6.0938l24.594-37-11.812 1.0312s-5.466 6.2934-9.9375 11.781c-4.4715 5.4878-5.9152 15.844-16.688 16.25-10.772 0.4065-29.324-1.1178-32.75-4.875-4.4611-4.8918-12.969-14.438-12.969-14.438-6.0976 4.2683-17.875 3.75-17.875 3.75s-11.809 0.39329-17.906-3.875c0 0-8.4764 9.5457-12.938 14.438-3.4264 3.7572-22.009 5.2815-32.781 4.875s-12.185-10.762-16.656-16.25c-4.4716-5.4878-9.9688-11.781-9.9688-11.781l-11.781-1.0312z"/>
   <path transform="translate(0 552.36)" d="m216.88 321.69s-3.0012 1.2385-2.2188 1.7812c5.3887 3.7374 35.344 3.4375 35.344 3.4375s27.955 0.3936 33.344-3.3438c0.7825-0.54271-2.25-1.75-2.25-1.75l-31.5-0.125h-32.719z"/>
   <path transform="translate(0 552.36)" d="m250.78 346.66v0.0312h-18.688s9.1875 6.314 9.1875 13.5-4.2406 10.123-4.0312 29.594c0.28633 26.628 11.802 37.738 11.891 37.819 0 0 11.291-10.962 11.578-37.694 0.20937-19.471-4.0312-22.408-4.0312-29.594s9.1875-13.531 9.1875-13.531z"/>
   <path d="m369.94 814.36s-6.6112 31.619-20.408 51.452c-13.797 19.833-46.853 57.488-46.853 57.488s18.971-26.157 24.433-35.93c5.4614-9.773 8.3358-15.234 8.3358-15.234s-9.4856 10.06-20.983 15.234-20.408 5.174-20.408 5.174 30.181-6.3237 42.541-25.582c12.36-19.259 20.408-39.38 20.408-39.38s-16.097 6.8986-39.38-1.1498-20.696-12.073-20.696-12.073 2.2995-4.5991 3.7367-3.7368c1.4372 0.86233 14.66 11.785 31.044 14.085 16.384 2.2995 29.606 2.2995 38.23-10.348z" fill="#969696"/>
   <path d="m363.01 707.04s-14.341-25.187-49.984-11.103-41.392 27.594-43.691 52.314c0 0 36.156-58.853 93.675-41.212z" fill="#969696"/>
   <path transform="translate(0 552.36)" d="m232.94 186.56s2.6035 30.473-10.906 50.594c-13.51 20.121-17.803 22.982-17.812 28.188-9e-3 5.3518 6.3125 15.219 6.3125 15.219s-4.5887-11.121-2.875-14.938c3.0019-6.6853 13.226-16.119 15.812-17.844 2.587-1.7246 3.7376-4.3054 4.3125-0.28125 0.57488 4.0242-1.2667 15.511-1.4375 21-0.54301 17.453 22.969 17.188 22.969 17.188s22.856 0.35951 22.312-17.094c-0.17077-5.4889-2.0124-16.945-1.4375-20.969 0.57489-4.0242 1.7255-1.4434 4.3125 0.28125 2.587 1.7246 12.811 11.158 15.812 17.844 1.7137 3.8164-2.875 14.938-2.875 14.938s6.3215-9.8982 6.3125-15.25c-9e-3 -5.2058-4.3027-8.0353-17.812-28.156-13.51-20.121-10.906-50.594-10.906-50.594-2.587 9.1981-3.1748 45.128-2.3125 58.062 0.86232 12.935 4.0372 23.87 2.3125 29.906-1.7246 6.0363-15.688 6.1875-15.688 6.1875s-14.682-0.27622-16.406-6.3125c-1.7246-6.0363 1.4502-16.971 2.3125-29.906 0.86233-12.935 0.27447-48.864-2.3125-58.062z" fill="#969696"/>
   <path d="m313.53 733.96c-24.289 0.50813-37.211 15.567-37.312 21.156 0.30488 3.0488 5.6057 7.6075 11.5 10.656s22.447 5.1875 32.406 5.1875 23.474-6.4052 27.844-8.0312c4.3699-1.626 7.6217 0.31936 12.906 1.8438 5.2846 1.5244 15.969 11.469 15.969 11.469s-5.4116-6.6857-9.375-9.5312-10.141-5.6169-9.5312-6.125 3.654 0.32723 7.3125 1.75c3.6585 1.4228 8.625 5.7812 8.625 5.7812s-4.1545-4.8659-7-7c-2.8455-2.1342-5.2812-2.9688-5.2812-2.9688s2.8501-2.217 5.1875-5.0625 4.6562-11.281 4.6562-11.281-3.2332 5.67-5.0625 8.7188-4.8961 5.8122-8.6562 6.2188c-3.7602 0.4065-6.5907-2.6603-11.469-8.6562-4.878-5.9959-8.4301-14.633-32.719-14.125zm1.7812 3.4688c25.313-0.50369 29.719 19.5 29.719 19.5s-7.7202 7.296-33.344 8.0312c-10.738 0.30812-31.53-1.9432-30.094-10.75 0 0 3.6781-14.757 31.219-16.688 0.86065-0.0603 1.6835-0.0775 2.5-0.0937z" fill="#646464"/>
   <path d="m218.01 694.09s-25.295-20.408-45.703-19.259c-20.408 1.1498-34.431 20.481-37.337 32.086s7.7301-39.559 83.04-12.827z" fill="#969696"/>
   <path d="m228.46 714.64s-23.984-25.203-51.829-29.268c-27.846-4.065-41.667 21.545-41.667 21.545s11.789-16.87 41.87-8.9431 42.683 20.732 42.683 20.732 7.5203 4.878 8.9431-4.065z"/>
   <path d="m217.69 754.28s-13.008-12.805-30.081-13.211c-17.073-0.40651-28.252 8.3333-30.488 12.602-2.2358 4.2683 16.26 8.1301 31.911 7.7236 15.65-0.4065 21.951-2.8455 28.659-7.1138z"/>
   <path d="m228.87 836.59c0-1.8293-1.0163-4.4715-5.2846-5.691s-8.7398-0.40651-5.0813 2.8455c3.6585 3.252 7.1138 3.8618 10.366 2.8455z"/>
   <path d="m128.04 814.24s6.6112 31.619 20.408 51.452c13.797 19.833 46.853 57.488 46.853 57.488s-18.971-26.157-24.433-35.93c-5.4614-9.773-8.3358-15.234-8.3358-15.234s9.4856 10.06 20.983 15.234 20.408 5.174 20.408 5.174-30.181-6.3237-42.541-25.582c-12.36-19.259-20.408-39.38-20.408-39.38s16.097 6.8986 39.38-1.1498 20.696-12.073 20.696-12.073-2.2995-4.5991-3.7367-3.7368c-1.4372 0.86233-14.66 11.785-31.044 14.085-16.384 2.2995-29.606 2.2995-38.23-10.348z" fill="#969696"/>
   <path d="m134.97 706.92s14.341-25.187 49.984-11.103 41.392 27.594 43.691 52.314c0 0-36.156-58.853-93.675-41.212z" fill="#969696"/>
   <path d="m184.44 733.84c24.289 0.50813 37.211 15.567 37.312 21.156-0.30488 3.0488-5.6057 7.6075-11.5 10.656s-22.447 5.1875-32.406 5.1875-23.474-6.4052-27.844-8.0312c-4.3699-1.626-7.6217 0.31936-12.906 1.8438-5.2846 1.5244-15.969 11.469-15.969 11.469s5.4116-6.6857 9.375-9.5312 10.141-5.6169 9.5312-6.125-3.654 0.32723-7.3125 1.75c-3.6585 1.4228-8.625 5.7812-8.625 5.7812s4.1545-4.8659 7-7c2.8455-2.1342 5.2812-2.9688 5.2812-2.9688s-2.8501-2.217-5.1875-5.0625-4.6562-11.281-4.6562-11.281 3.2332 5.67 5.0625 8.7188 4.8961 5.8122 8.6562 6.2188c3.7602 0.4065 6.5907-2.6603 11.469-8.6562 4.878-5.9959 8.4301-14.633 32.719-14.125zm-1.7812 3.4688c-25.313-0.50369-29.719 19.5-29.719 19.5s7.7202 7.296 33.344 8.0312c10.738 0.30812 31.53-1.9432 30.094-10.75 0 0-3.6781-14.757-31.219-16.688-0.86065-0.0603-1.6835-0.0775-2.5-0.0937z" fill="#646464"/>
  </g>
 </g>
</svg>
